<svg width="500" height="500" viewBox="0 0 132.29 132.29" xmlns="http://www.w3.org/2000/svg"><defs><filter id="a" color-interpolation-filters="sRGB"><feColorMatrix result="color2" values="-1 0 0 0 1 0 -1 0 0 1 0 0 -1 0 1 0.21 0.72 0.07 1 0"/></filter></defs><rect y=".01" width="132.29" height="132.29" ry=".265" fill="#1a1a1a"/><rect x="-8.103" y="39.283" width="6.165" height="5.813" ry=".265" fill="#f9f9f9"/><g transform="matrix(1 0 0 .99991 0 .013)" fill="#00000b" filter="url(#a)"><path d="M66.143 132.3l-7.82-10.299-35.218-22.844L5.943 18.865-.002 8.068l18.69 95.804z" opacity=".5"/><path d="M-.002 8.062L5.943 18.86 39.347 42.5l18.973 79.496 7.821 10.298-18.986-94.722z"/><path d="M66.143 132.3l7.821-10.299 35.217-22.844 17.162-80.292 5.946-10.797-18.691 95.804z" opacity=".5"/><path d="M132.29 8.069l-5.945 10.798-33.406 23.64-18.973 79.495-7.821 10.298 18.986-94.723zM66.144-.003a15.875 15.875 0 00-15.875 15.876 15.875 15.875 0 0015.875 15.875 15.875 15.875 0 0015.875-15.875A15.875 15.875 0 0066.144-.003zm0 6.615a9.26 9.26 0 019.26 9.26 9.26 9.26 0 01-9.26 9.261 9.26 9.26 0 01-9.26-9.26 9.26 9.26 0 019.26-9.261z"/></g></svg>