<svg width="500" height="500" viewBox="0 0 132.29 132.29" xmlns="http://www.w3.org/2000/svg">
<style>@media (prefers-color-scheme: dark) {.d { fill: #00000b } .dc { fill: #f9f9f9 }}</style><rect y=".01" width="132.29" height="132.29" ry=".265" class="d" fill="#f9f9f9"/><rect x="-8.103" y="39.283" width="6.165" height="5.813" ry=".265" class="d" fill="#f9f9f9"/>
<g class="dc" fill="#00000b"><path d="M66.143 132.301l-7.82-10.298-35.218-22.842L5.943 18.876-.002 8.08l18.69 95.796z" opacity=".5"/><path d="M-.002 8.074l5.945 10.797L39.347 42.51l18.973 79.489 7.821 10.297-18.986-94.713z"/><path d="M66.143 132.301l7.821-10.298 35.217-22.842 17.162-80.285 5.946-10.796-18.691 95.796z" opacity=".5"/><path d="M132.29 8.081l-5.945 10.797-33.406 23.638-18.973 79.488-7.821 10.297 18.986-94.714zM66.144.01a15.875 15.874 0 00-15.875 15.875 15.875 15.874 0 0015.875 15.873 15.875 15.874 0 0015.875-15.873A15.875 15.874 0 0066.144.01zm0 6.614a9.26 9.26 0 019.26 9.26 9.26 9.26 0 01-9.26 9.26 9.26 9.26 0 01-9.26-9.26 9.26 9.26 0 019.26-9.26z"/></g></svg>