<svg xmlns="http://www.w3.org/2000/svg" xmlns:xlink="http://www.w3.org/1999/xlink" aria-hidden="true">
<symbol id="clavem" viewBox="140 0 132 132"><path d="M66.146 132.288l-7.821-10.297L23.107 99.15 5.945 18.864 0 8.068l18.69 95.795z" opacity=".5"/><path d="M0 8.064l5.945 10.797 33.404 23.638 18.974 79.488 7.82 10.297-18.986-94.713z"/><path d="M66.146 132.288l7.82-10.297 35.218-22.842 17.162-80.285 5.945-10.796-18.69 95.795z" opacity=".5"/><path d="M132.291 8.07v.002l-5.945 10.796L92.94 42.507l-18.973 79.487-7.821 10.297 18.987-94.715zM66.146 0A15.875 15.874 0 0050.27 15.874a15.875 15.874 0 0015.875 15.874A15.875 15.874 0 0082.02 15.874 15.875 15.874 0 0066.146 0zm0 6.614a9.26 9.26 0 019.26 9.26 9.26 9.26 0 01-9.26 9.26 9.26 9.26 0 01-9.26-9.26 9.26 9.26 0 019.26-9.26z"/><text transform="matrix(.86603 0 0 1.1547 .002 -.009)" x="190.037" y="90" style="line-height:1.25" font-family="Latin"><tspan x="190" y="84" font-size="72">Clavem</tspan></text></symbol>
<symbol id="clogo" viewBox="0 0 132 132"><path d="M66.143 132.3L58.323 122 23.105 99.16 5.943 18.874-.002 8.078l18.69 95.796z" opacity=".56"/><path d="M-.002 8.074l5.945 10.797L39.347 42.51 58.32 122l7.821 10.297-18.986-94.714z"/><path d="M66.143 132.3L73.964 122l35.217-22.842 17.163-80.285 5.946-10.796-18.691 95.796z" opacity=".56"/><path d="M132.29 8.081l-5.945 10.797-33.407 23.638-18.973 79.488-7.82 10.298L85.13 37.587zM66.143.01a15.875 15.874 0 00-15.875 15.875 15.875 15.874 0 0015.875 15.873 15.875 15.874 0 0015.875-15.873A15.875 15.874 0 0066.143.01zm0 6.614a9.26 9.26 0 019.26 9.26 9.26 9.26 0 01-9.26 9.26 9.26 9.26 0 01-9.26-9.26 9.26 9.26 0 019.26-9.26z"/></symbol>
<symbol id="menu" viewBox="90 130 300 320"><path d="M135.657 205.161l15.272 31.032h7.556l15.351-31.032v35.742h12.673v-56.786h-17.057l-14.708 31.198-14.618-31.198h-17.142v56.786h12.673zM242.319 229.693h-29.161v-11.78h25.426v-10.806h-25.426v-11.698h28.269v-11.292h-40.943v56.786h41.835zM266.284 205.322l27.052 35.581h12.674v-56.786h-12.674v36.559l-27.865-36.559h-11.86v56.786h12.673zM343.534 241.471c7.093 0 12.917-2.205 17.465-6.621 4.548-4.413 6.823-10.736 6.823-18.966v-31.767h-12.674v31.36c0 4.548-1.038 8.138-3.126 10.762-2.083 2.627-4.912 3.94-8.489 3.94-3.57 0-6.414-1.313-8.529-3.94-2.108-2.624-3.166-6.214-3.166-10.762v-31.36h-12.673v31.767c0 8.177 2.287 14.487 6.862 18.927 4.576 4.439 10.413 6.66 17.507 6.66zM129.219 285.391h231.158v20.689H129.219zM129.219 346.674h231.158v20.689H129.219z"/></symbol>
<symbol id="o" viewBox="0 0 20 20" stroke-linecap="round"><path d="M0 3h20v2H0V3zm0 6h20v2H0V9zm0 6h20v2H0v-2z"/></symbol>
<symbol id="x" viewBox="0 0 20 20" stroke-linecap="round"><path d="M10 8.586L2.929 1.515 1.515 2.929 8.586 10l-7.071 7.071 1.414 1.414L10 11.414l7.071 7.071 1.414-1.414L11.414 10l7.071-7.071-1.414-1.414L10 8.586z"/></symbol>
<symbol id="play" viewBox="0 0 512 512"><path d="M371.7 238l-176-107c-15.8-8.8-35.7 2.5-35.7 21v208c0 18.4 19.8 29.8 35.7 21l176-101c16.4-9.1 16.4-32.8 0-42zM504 256C504 119 393 8 256 8S8 119 8 256s111 248 248 248 248-111 248-248zm-448 0c0-110.5 89.5-200 200-200s200 89.5 200 200-89.5 200-200 200S56 366.5 56 256z"/></symbol>
<symbol id="read" viewBox="0 0 64 64" xml:space="preserve"><path fill="none" stroke="currentColor" stroke-width="3" stroke-miterlimit="10" d="M1 6v48l31 4 31-4V6l-31 4zM32 58V10"/><path fill="none" stroke="currentColor" stroke-width="3" stroke-miterlimit="10" d="M43 8v19l4-2 4 2V7M7 16l19 2M7 26l19 2M7 36l19 2M7 46l19 2M57 36l-19 2M57 46l-19 2"/></symbol>
<symbol id="cart" viewBox="0 0 21 21"><path d="M16.2 14.919H7.837l-.827-2.884 10.158-.746 1.9-7.063H4.783l-.051-.192C4.035 1.557 3.741.418 1.163.162A.815.815 0 1 0 1 1.784c1.73.172 1.793 1.38 2.162 2.694l3.3 11.506a1.694 1.694 0 1 0 .285.939 1.63 1.63 0 0 0-.042-.374h8.106a1.722 1.722 0 0 0-.044.386 1.688 1.688 0 0 0 1.689 1.691 1.776 1.776 0 0 0 1.692-1.788 1.905 1.905 0 0 0-1.948-1.919z"/></symbol>
<symbol id="search" viewBox="0 0 16 16"><path d="M11.5 3a3.5 3.5 0 110 7 3.5 3.5 0 010-7zm0-1A4.5 4.5 0 1016 6.5 4.49 4.49 0 0011.5 2zM9.442 9.525l-.88-.88L2.06 15.06l.88.88 6.502-6.415z"/></symbol>
<symbol id="signup" fill="none" stroke-width="1.6"><rect x=".5" y=".5" width="19" height="19" rx="9.5" stroke="currentColor"/><path d="M9.5 6h1v8h-1V6z" fill="currentColor" /><path d="M14 9.5v1H6v-1h8z" fill="currentColor"/></symbol>
<symbol id="show-psw"><path fill="currentColor" d="M572.52 241.4C518.29 135.59 410.93 64 288 64S57.68 135.64 3.48 241.41a32.35 32.35 0 0 0 0 29.19C57.71 376.41 165.07 448 288 448s230.32-71.64 284.52-177.41a32.35 32.35 0 0 0 0-29.19zM288 400a144 144 0 1 1 144-144 143.93 143.93 0 0 1-144 144zm0-240a95.31 95.31 0 0 0-25.31 3.79 47.85 47.85 0 0 1-66.9 66.9A95.78 95.78 0 1 0 288 160z"/></symbol>
<symbol id="!show-psw"><path fill="currentColor" d="M320 400c-75.85 0-137.25-58.71-142.9-133.11L72.2 185.82c-13.79 17.3-26.48 35.59-36.72 55.59a32.35 32.35 0 0 0 0 29.19C89.71 376.41 197.07 448 320 448c26.91 0 52.87-4 77.89-10.46L346 397.39a144.13 144.13 0 0 1-26 2.61zm313.82 58.1l-110.55-85.44a331.25 331.25 0 0 0 81.25-102.07 32.35 32.35 0 0 0 0-29.19C550.29 135.59 442.93 64 320 64a308.15 308.15 0 0 0-147.32 37.7L45.46 3.37A16 16 0 0 0 23 6.18L3.37 31.45A16 16 0 0 0 6.18 53.9l588.36 454.73a16 16 0 0 0 22.46-2.81l19.64-25.27a16 16 0 0 0-2.82-22.45zm-183.72-142l-39.3-30.38A94.75 94.75 0 0 0 416 256a94.76 94.76 0 0 0-121.31-92.21A47.65 47.65 0 0 1 304 192a46.64 46.64 0 0 1-1.54 10l-73.61-56.89A142.31 142.31 0 0 1 320 112a143.92 143.92 0 0 1 144 144c0 21.63-5.29 41.79-13.9 60.11z"/></symbol>
<symbol id="key" viewBox="0 0 512 512"><path d="M512 176.001C512 273.203 433.202 352 336 352c-11.22 0-22.19-1.062-32.827-3.069l-24.012 27.014A23.999 23.999 0 0 1 261.223 384H224v40c0 13.255-10.745 24-24 24h-40v40c0 13.255-10.745 24-24 24H24c-13.255 0-24-10.745-24-24v-78.059c0-6.365 2.529-12.47 7.029-16.971l161.802-161.802C163.108 213.814 160 195.271 160 176 160 78.798 238.797.001 335.999 0 433.488-.001 512 78.511 512 176.001zM336 128c0 26.51 21.49 48 48 48s48-21.49 48-48-21.49-48-48-48-48 21.49-48 48z"/></symbol>
<symbol id="note" viewBox="0 0 16 16" data-tippy-content="Listen author reading"><path d="M11.734 2c-.097 0-.195.012-.293.031L6.187 3.156A1.508 1.508 0 005 4.625v5.656A1.984 1.984 0 004 10c-1.098 0-2 .902-2 2 0 1.098.902 2 2 2 1.098 0 2-.902 2-2V6.406l6-1.289v4.164A1.984 1.984 0 0011 9c-1.098 0-2 .902-2 2 0 1.098.902 2 2 2 1.098 0 2-.902 2-2V3.293c0-.402-.172-.781-.465-1.02a1.29 1.29 0 00-.8-.273zm.075 1.008c.043.008.07.023.097.047.051.039.094.105.094.238v.8l-6 1.29v-.758c0-.238.16-.438.395-.488l5.257-1.13a.349.349 0 01.157 0zM11 10c.559 0 1 .441 1 1 0 .559-.441 1-1 1-.559 0-1-.441-1-1 0-.559.441-1 1-1zm-7 1c.559 0 1 .441 1 1 0 .559-.441 1-1 1-.559 0-1-.441-1-1 0-.559.441-1 1-1z"/></symbol>
<symbol id="pdf" viewBox="0 0 1792 1792" data-tippy-content="Listen author reading"><path d="M1596 380q28 28 48 76t20 88v1152q0 40-28 68t-68 28H224q-40 0-68-28t-28-68V96q0-40 28-68t68-28h896q40 0 88 20t76 48zm-444-244v376h376q-10-29-22-41l-313-313q-12-12-41-22zm384 1528V640h-416q-40 0-68-28t-28-68V128H256v1536h1280zm-514-593q33 26 84 56 59-7 117-7 147 0 177 49 16 22 2 52 0 1-1 2l-2 2v1q-6 38-71 38-48 0-115-20t-130-53q-221 24-392 83-153 262-242 262-15 0-28-7l-24-12q-1-1-6-5-10-10-6-36 9-40 56-91.5t132-96.5q14-9 23 6 2 2 2 4 52-85 107-197 68-136 104-262-24-82-30.5-159.5T785 552q11-40 42-40h22q23 0 35 15 18 21 9 68-2 6-4 8 1 3 1 8v30q-2 123-14 192 55 164 146 238zm-576 411q52-24 137-158-51 40-87.5 84t-49.5 74zm398-920q-15 42-2 132 1-7 7-44 0-3 7-43 1-4 4-8-1-1-1-2-1-2-1-3-1-22-13-36 0 1-1 2v2zm-124 661q135-54 284-81-2-1-13-9.5t-16-13.5q-76-67-127-176-27 86-83 197-30 56-45 83zm646-16q-24-24-140-24 76 28 124 28 14 0 18-1 0-1-2-3z"/></symbol>
<symbol id="cookie" viewBox="0 0 1792 1792"><path d="M1664 960q-152-236-381-353 61 104 61 225 0 185-131.5 316.5T896 1280t-316.5-131.5T448 832q0-121 61-225-229 117-381 353 133 205 333.5 326.5T896 1408t434.5-121.5T1664 960zM944 576q0-20-14-34t-34-14q-125 0-214.5 89.5T592 832q0 20 14 34t34 14 34-14 14-34q0-86 61-147t147-61q20 0 34-14t14-34zm848 384q0 34-20 69-140 230-376.5 368.5T896 1536t-499.5-139T20 1029Q0 994 0 960t20-69q140-229 376.5-368T896 384t499.5 139T1772 891q20 35 20 69z"/></symbol>
<symbol id="privacy" viewBox="0 0 1792 1792"><path d="M555 1335l78-141q-87-63-136-159t-49-203q0-121 61-225-229 117-381 353 167 258 427 375zm389-759q0-20-14-34t-34-14q-125 0-214.5 89.5T592 832q0 20 14 34t34 14 34-14 14-34q0-86 61-147t147-61q20 0 34-14t14-34zm363-191q0 7-1 9-106 189-316 567t-315 566l-49 89q-10 16-28 16-12 0-134-70-16-10-16-28 0-12 44-87-143-65-263.5-173T20 1029Q0 998 0 960t20-69q153-235 380-371t496-136q89 0 180 17l54-97q10-16 28-16 5 0 18 6t31 15.5 33 18.5 31.5 18.5T1291 358q16 10 16 27zm37 447q0 139-79 253.5T1056 1250l280-502q8 45 8 84zm448 128q0 35-20 69-39 64-109 145-150 172-347.5 267T896 1536l74-132q212-18 392.5-137T1664 960q-115-179-282-294l63-112q95 64 182.5 153T1772 891q20 34 20 69z"/></symbol>
<symbol id="terms" viewBox="0 0 15 15"><path d="M15 12.23l-1-7.68.24.06h.11a.38.38 0 00.36-.27.38.38 0 00-.25-.47c-.19-.06-.39-.1-.59-.15a.38.38 0 00-.29-.26.37.37 0 00-.28.11c-.6-.15-1.21-.28-1.82-.39V1.29A1.29 1.29 0 0010.17 0a1.32 1.32 0 00-1.06.57 1.37 1.37 0 00-2 .26 1.3 1.3 0 00-.88-.32 1.32 1.32 0 00-1.12.66A1.13 1.13 0 004.46 1a1.19 1.19 0 00-1.19 1.14v1.11c-.53.1-1 .21-1.57.34a.37.37 0 00-.28-.11.38.38 0 00-.29.26c-.19 0-.39.09-.58.15a.38.38 0 00-.25.47.38.38 0 00.36.27h.11L1 4.55l-1 7.66A2.67 2.67 0 002.6 15a2.67 2.67 0 002.57-2.73.19.19 0 000-.07.13.13 0 000-.06L2 4.27a17 17 0 011.24-.25v.37a4 4 0 00-.12 1 3.93 3.93 0 002.09 3.42v1.77a.38.38 0 10.75 0v-2a.39.39 0 00-.21-.34A3.19 3.19 0 013.9 5.39a1.18 1.18 0 00.56.16 1.2 1.2 0 00.8-.32 1.35 1.35 0 001 .43 1.29 1.29 0 001-.44 1.29 1.29 0 00.6.32 3.58 3.58 0 00-.89.85.37.37 0 00.3.59.39.39 0 00.31-.15 2.81 2.81 0 012.18-1.22.38.38 0 000-.75H8.14a.59.59 0 01-.58-.59v-.5h2.82a.73.73 0 01.75.71v.89a3.19 3.19 0 01-1.85 2.87.39.39 0 00-.21.34v2a.38.38 0 10.75 0V8.81a3.93 3.93 0 002.06-3.44v-.89A1.33 1.33 0 0011.8 4c.4.07.79.15 1.18.24l-3.11 7.87a.13.13 0 000 .06.25.25 0 000 .07A2.67 2.67 0 0012.41 15 2.67 2.67 0 0015 12.25zM1.65 5.35l2.59 6.53H.83zm1 8.9a1.88 1.88 0 01-1.84-1.62h3.58a1.88 1.88 0 01-1.79 1.62zM4.9 4.36a.44.44 0 01-.44.44.44.44 0 01-.46-.44V2.14a.44.44 0 01.44-.44.44.44 0 01.44.44zm1.91 0a.58.58 0 11-1.16 0V2.14a.7.7 0 000-.14.4.4 0 000-.15.58.58 0 111.16 0zm.73-2.58a.43.43 0 000-.11.65.65 0 111.29 0V3H7.56V1.85s-.02-.07-.02-.11zM9.6 3V1.63v-.06c0-.06 0 0 0 0v-.28a.57.57 0 011.14 0v1.78a1.49 1.49 0 00-.36 0zm4.58 8.86h-3.41l2.59-6.53zm-1.77 2.37a1.89 1.89 0 01-1.79-1.62h3.58a1.88 1.88 0 01-1.79 1.64z"/></symbol>
<symbol id="scrol" fill="none" stroke-linecap="round" stroke-linejoin="round" stroke-width="2" viewBox="0 0 24 24" stroke="currentColor"><path d="M19 14l-7 7m0 0l-7-7m7"/></symbol>
<symbol id="set" viewBox="-2 -2 18 18"><g stroke="currentColor" fill="none" fill-rule="evenodd" stroke-linecap="round" stroke-linejoin="round"><path d="M13 14v-1.556c0-1.718-1.455-3.11-3.25-3.11h-6.5c-1.795 0-3.25 1.392-3.25 3.11V14"/><ellipse cx="6.5" cy="3.111" rx="3.25" ry="3.111"/></g></symbol>
<symbol id="out" viewBox="0 0 512 512"><path d="M144 112v51.6H48c-26.5 0-48 21.5-48 48v88.6c0 26.5 21.5 48 48 48h96v51.6c0 42.6 51.7 64.2 81.9 33.9l144-143.9c18.7-18.7 18.7-49.1 0-67.9l-144-144C195.8 48 144 69.3 144 112zm192 144L192 400v-99.7H48v-88.6h144V112l144 144zm80 192h-84c-6.6 0-12-5.4-12-12v-24c0-6.6 5.4-12 12-12h84c26.5 0 48-21.5 48-48V160c0-26.5-21.5-48-48-48h-84c-6.6 0-12-5.4-12-12V76c0-6.6 5.4-12 12-12h84c53 0 96 43 96 96v192c0 53-43 96-96 96z"/></symbol>
<symbol id="team" viewBox="-64 0 512 512"><path d="M96 224c35.3 0 64-28.7 64-64s-28.7-64-64-64-64 28.7-64 64 28.7 64 64 64zm448 0c35.3 0 64-28.7 64-64s-28.7-64-64-64-64 28.7-64 64 28.7 64 64 64zm32 32h-64c-17.6 0-33.5 7.1-45.1 18.6 40.3 22.1 68.9 62 75.1 109.4h66c17.7 0 32-14.3 32-32v-32c0-35.3-28.7-64-64-64zm-256 0c61.9 0 112-50.1 112-112S381.9 32 320 32 208 82.1 208 144s50.1 112 112 112zm76.8 32h-8.3c-20.8 10-43.9 16-68.5 16s-47.6-6-68.5-16h-8.3C179.6 288 128 339.6 128 403.2V432c0 26.5 21.5 48 48 48h288c26.5 0 48-21.5 48-48v-28.8c0-63.6-51.6-115.2-115.2-115.2zm-223.7-13.4C161.5 263.1 145.6 256 128 256H64c-35.3 0-64 28.7-64 64v32c0 17.7 14.3 32 32 32h65.9c6.3-47.4 34.9-87.3 75.2-109.4z"/></symbol>
<symbol id="i" viewBox="0 0 1792 1792"><path d="M1152 1376v-160q0-14-9-23t-23-9h-96V672q0-14-9-23t-23-9H672q-14 0-23 9t-9 23v160q0 14 9 23t23 9h96v320h-96q-14 0-23 9t-9 23v160q0 14 9 23t23 9h448q14 0 23-9t9-23zm-128-896V320q0-14-9-23t-23-9H800q-14 0-23 9t-9 23v160q0 14 9 23t23 9h192q14 0 23-9t9-23zm640 416q0 209-103 385.5T1281.5 1561 896 1664t-385.5-103T231 1281.5 128 896t103-385.5T510.5 231 896 128t385.5 103T1561 510.5 1664 896z"/></symbol>
<symbol id="lp" viewBox="0 0 80 80"><path d="M7.788.1A7.736 7.736 0 00.054 7.832V72.37a7.736 7.736 0 007.734 7.734h64.535a7.733 7.733 0 007.734-7.734V7.833A7.733 7.733 0 0072.323.1H7.788zm30.696 13.265l-7.57 31.352a9.783 9.783 0 00-.24 1.793c-.02.544.08 1.03.298 1.448.218.418.587.748 1.113 1.002s1.26.42 2.203.492l-1.628 6.691v.006c-2.577 0-4.602-.337-6.07-1.008-1.47-.671-2.525-1.585-3.159-2.748-.636-1.16-.944-2.493-.925-4.002.017-1.506.226-3.11.627-4.816l6.914-28.904 8.437-1.307zm13.001 12.96c2.033 0 3.782.31 5.25.926 1.47.617 2.678 1.461 3.621 2.531.943 1.071 1.639 2.324 2.092 3.756.453 1.431.68 2.963.68 4.594v.006c0 2.646-.437 5.066-1.307 7.26-.87 2.196-2.073 4.093-3.615 5.689-1.542 1.598-3.395 2.838-5.555 3.726-2.159.889-4.51 1.336-7.049 1.336-1.234 0-2.463-.11-3.697-.328l-2.449 9.856H31.4l9.035-37.665c1.45-.435 3.112-.826 4.98-1.172 1.87-.344 3.893-.515 6.07-.515zm-1.037 6.803c-1.162 0-2.253.11-3.269.328l-3.808 15.838c.616.145 1.377.217 2.285.217 1.414 0 2.706-.258 3.867-.785a8.51 8.51 0 002.965-2.203c.815-.943 1.45-2.079 1.904-3.405.453-1.324.68-2.785.68-4.382 0-1.56-.343-2.884-1.032-3.973-.69-1.088-1.886-1.635-3.591-1.635z"/></symbol>
<symbol id="btc" viewBox="0 0 510 510"><path d="M504 256c0 136.967-111.033 248-248 248S8 392.967 8 256 119.033 8 256 8s248 111.033 248 248zm-141.651-35.33c4.937-32.999-20.191-50.739-54.55-62.573l11.146-44.702-27.213-6.781-10.851 43.524c-7.154-1.783-14.502-3.464-21.803-5.13l10.929-43.81-27.198-6.781-11.153 44.686c-5.922-1.349-11.735-2.682-17.377-4.084l.031-.14-37.53-9.37-7.239 29.062s20.191 4.627 19.765 4.913c11.022 2.751 13.014 10.044 12.68 15.825l-12.696 50.925c.76.194 1.744.473 2.829.907-.907-.225-1.876-.473-2.876-.713l-17.796 71.338c-1.349 3.348-4.767 8.37-12.471 6.464.271.395-19.78-4.937-19.78-4.937l-13.51 31.147 35.414 8.827c6.588 1.651 13.045 3.379 19.4 5.006l-11.262 45.213 27.182 6.781 11.153-44.733a1038.209 1038.209 0 0021.687 5.627l-11.115 44.523 27.213 6.781 11.262-45.128c46.404 8.781 81.299 5.239 95.986-36.727 11.836-33.79-.589-53.281-25.004-65.991 17.78-4.098 31.174-15.792 34.747-39.949zm-62.177 87.179c-8.41 33.79-65.308 15.523-83.755 10.943l14.944-59.899c18.446 4.603 77.6 13.717 68.811 48.956zm8.417-87.667c-7.673 30.736-55.031 15.12-70.393 11.292l13.548-54.327c15.363 3.828 64.836 10.973 56.845 43.035z"/></symbol>
<symbol id="eth" viewBox="-96 0 512 512"><path d="M311.9 260.8L160 353.6 8 260.8 160 0l151.9 260.8zM160 383.4L8 290.6 160 512l152-221.4-152 92.8z"/></symbol>
<symbol id="gl" viewBox="0 0 16 16"><path d="M5.187 7l-1.14-2.63-2.04 4.95L8 13.75l5.996-4.432-2.042-4.95L10.813 7H5.187zM11.53.319a.5.5 0 01.92.008l3.395 8.23a2 2 0 01-.66 2.37L8.595 15.8a1 1 0 01-1.19 0L.818 10.928a2 2 0 01-.66-2.37L3.55.327A.5.5 0 014.47.319L6.5 5h3L11.53.319z"/></symbol>
<symbol id="dm" viewBox="0 0 24 24"><path d="M4 4h16a2 2 0 0 1 2 2v12a2 2 0 0 1-2 2H4a2 2 0 0 1-2-2V6c0-1.1.9-2 2-2zm16 3.38V6H4v1.38l8 4 8-4zm0 2.24l-7.55 3.77a1 1 0 0 1-.9 0L4 9.62V18h16V9.62z"/></symbol>
<symbol id="truck" viewBox="0 0 1792 1792"><title>Delivery</title><path d="M640 1408q0-52-38-90t-90-38-90 38-38 90 38 90 90 38 90-38 38-90zM256 896h384V640H482q-13 0-22 9L265 844q-9 9-9 22v30zm1280 512q0-52-38-90t-90-38-90 38-38 90 38 90 90 38 90-38 38-90zm256-1088v1024q0 15-4 26.5t-13.5 18.5-16.5 11.5-23.5 6-22.5 2-25.5 0-22.5-.5q0 106-75 181t-181 75-181-75-75-181H768q0 106-75 181t-181 75-181-75-75-181h-64q-3 0-22.5.5t-25.5 0-22.5-2-23.5-6-16.5-11.5-13.5-18.5-4-26.5q0-26 19-45t45-19V960q0-8-.5-35t0-38 2.5-34.5 6.5-37 14-30.5 22.5-30l198-198q19-19 50.5-32t58.5-13h160V320q0-26 19-45t45-19h1024q26 0 45 19t19 45z"/></symbol>
<symbol id="book" viewBox="0 0 1792 1792"><title>Ebook</title><path d="M1703 478q40 57 18 129l-275 906q-19 64-76.5 107.5T1247 1664H324q-77 0-148.5-53.5T76 1479q-24-67-2-127 0-4 3-27t4-37q1-8-3-21.5t-3-19.5q2-11 8-21t16.5-23.5T116 1179q23-38 45-91.5t30-91.5q3-10 .5-30t-.5-28q3-11 17-28t17-23q21-36 42-92t25-90q1-9-2.5-32t.5-28q4-13 22-30.5t22-22.5q19-26 42.5-84.5T404 411q1-8-3-25.5t-2-26.5q2-8 9-18t18-23 17-21q8-12 16.5-30.5t15-35 16-36 19.5-32 26.5-23.5 36-11.5T620 134l-1 3q38-9 51-9h761q74 0 114 56t18 130l-274 906q-36 119-71.5 153.5T1089 1408H220q-27 0-38 15-11 16-1 43 24 70 144 70h923q29 0 56-15.5t35-41.5l300-987q7-22 5-57 38 15 59 43zm-1064 2q-4 13 2 22.5t20 9.5h608q13 0 25.5-9.5T1311 480l21-64q4-13-2-22.5t-20-9.5H702q-13 0-25.5 9.5T660 416zm-83 256q-4 13 2 22.5t20 9.5h608q13 0 25.5-9.5T1228 736l21-64q4-13-2-22.5t-20-9.5H619q-13 0-25.5 9.5T577 672z"/></symbol>
<symbol id="mic" viewBox="0 0 512 512"><path d="M256 0c-49.456 0-89.693 40.237-89.693 89.693v176.279c0 49.45 40.237 89.687 89.693 89.687 49.456 0 89.693-39.957 89.693-89.071V89.693C345.693 40.237 305.456 0 256 0zm52.315 266.583c0 28.503-23.47 51.698-52.315 51.698s-52.321-23.464-52.321-52.315V89.693c0-28.851 23.47-52.321 52.321-52.321s52.321 23.47 52.315 52.321v176.89zm-71.001 142.643h37.372v84.088h-37.372z"/><path d="M305.207 474.628h-98.414c-10.321 0-18.686 8.365-18.686 18.686S196.472 512 206.793 512h98.414c10.321 0 18.686-8.365 18.686-18.686s-8.365-18.686-18.686-18.686zm92.185-239.806c-10.321 0-18.686 8.365-18.686 18.686v14.949c0 67.656-55.049 122.706-122.706 122.706-67.662 0-122.706-55.049-122.706-122.706v-14.949c0-10.321-8.365-18.686-18.686-18.686s-18.686 8.365-18.686 18.686v14.949c0 88.267 71.811 160.078 160.078 160.078s160.078-71.811 160.078-160.078v-14.949c0-10.32-8.365-18.686-18.686-18.686z"/></symbol>
<symbol id="arrow" stroke-linecap="round" stroke-linejoin="round" stroke-width="2" viewBox="0 0 22 22" stroke="currentColor"><path d="M7 16l-4-4m0 0l4-4m-4 4h18"/></symbol>
<symbol id="arrow-d" viewBox="0 0 20 20"><path d="M9.293 12.95l.707.707L15.657 8l-1.414-1.414L10 10.828 5.757 6.586 4.343 8z"/></symbol>
<symbol id="dl"><path d="M7.47 10.78a.75.75 0 001.06 0l3.75-3.75a.75.75 0 00-1.06-1.06L8.75 8.44V1.75a.75.75 0 00-1.5 0v6.69L4.78 5.97a.75.75 0 00-1.06 1.06l3.75 3.75zM3.75 13a.75.75 0 000 1.5h8.5a.75.75 0 000-1.5h-8.5z"/></symbol>
<symbol id="close" fill="none" stroke-linecap="round" stroke-linejoin="round" stroke-width="2" viewBox="0 0 24 24" stroke="currentColor"><path d="M10 14l2-2m0 0l2-2m-2 2l-2-2m2 2l2 2m7-2a9 9 0 11-18 0 9 9 0 0118 0z"/></symbol>
<symbol id="checkout" viewBox="0 0 512 512"><path d="M508.996 156.995A15 15 0 00497 151h-92.076C397.623 100.184 353.805 61 301 61c-52.804 0-96.623 39.184-103.924 90h-78.055L99.422 12.893A15 15 0 0084.571 0H15C6.716 0 0 6.716 0 15s6.716 15 15 15h56.55l42.12 297.646c2.607 17.204 11.015 32.968 23.729 44.638C127.39 380.544 121 393.04 121 407c0 20.723 14.085 38.209 33.181 43.414A44.76 44.76 0 00151 467c0 24.813 20.187 45 45 45s45-20.187 45-45c0-5.258-.915-10.305-2.58-15.01h125.16A44.888 44.888 0 00361 467c0 24.813 20.187 45 45 45s45-20.187 45-45-20.187-45-45-45H166c-8.271 0-15-6.729-15-15s6.729-15 15-15h224.7c33.444 0 63.05-22.36 72.024-54.39l48.679-167.422a14.998 14.998 0 00-2.407-13.193zM406 452c8.271 0 15 6.729 15 15s-6.729 15-15 15-15-6.729-15-15 6.729-15 15-15zm-210 0c8.271 0 15 6.729 15 15s-6.729 15-15 15-15-6.729-15-15 6.729-15 15-15zM301 91c41.355 0 75 33.645 75 75s-33.645 75-75 75-75-33.645-75-75 33.645-75 75-75zm132.851 238.468C428.506 348.623 410.762 362 390.7 362H187.899c-22.39 0-41.119-16.307-44.559-38.781L123.266 181h73.81c7.301 50.816 51.12 90 103.924 90 52.805 0 96.623-39.184 103.924-90h72.094s-43.153 148.416-43.167 148.468zM275.394 206.606c5.857 5.857 15.355 5.858 21.213 0l45-45c5.858-5.858 5.858-15.355 0-21.213-5.857-5.858-15.355-5.858-21.213 0L286 174.787l-4.394-4.393c-5.857-5.858-15.355-5.858-21.213 0s-5.858 15.355 0 21.213z"/></symbol>
<symbol id="send" viewBox="0 0 1792 1792"><path d="M1764 11q33 24 27 64l-256 1536q-5 29-32 45-14 8-31 8-11 0-24-5l-527-215-298 327q-18 21-47 21-14 0-23-4-19-7-30-23.5t-11-36.5v-452L40 1083q-37-14-40-55-3-39 32-59L1696 9q35-21 68 2zm-342 1499l221-1323-1434 827 336 137 863-639-478 797z"/></symbol>
<symbol id="clap" viewBox="0 0 117.57 122.88"><path d="M113.6 74.1a8.005 8.005 0 00-3.22-3.18l1.88-1.03a7.96 7.96 0 003.8-4.75c.57-1.96.39-4.13-.66-6.05v-.01a7.897 7.897 0 00-3.44-3.28l1.51-.83a7.96 7.96 0 003.8-4.75c.57-1.96.39-4.13-.66-6.05a7.88 7.88 0 00-4.75-3.79 7.946 7.946 0 00-6.05.66l-1.54.85c.15-1.53-.15-3.12-.94-4.57a7.932 7.932 0 00-4.75-3.8 7.946 7.946 0 00-6.05.66l-7.92 4.36a9.065 9.065 0 00-4.3-4.41h-.01a9.145 9.145 0 00-5.4-.8l.87-1.78c1.1-2.26 1.18-4.76.41-6.97a9.095 9.095 0 00-4.63-5.23 9.065 9.065 0 00-6.97-.41 9.112 9.112 0 00-5.23 4.62l-.88 1.81a9.122 9.122 0 00-3.91-3.66 9.065 9.065 0 00-6.97-.41 9.095 9.095 0 00-5.23 4.63l-19 38.99c-.43.63-.82 1.29-1.16 1.98l-1.12 2.29-.11-.29c-.77-2.01-1.47-4.07-1.74-4.84-1.79-5.21-5.2-7.79-8.65-8.29a8.72 8.72 0 00-4.51.53c-1.41.56-2.68 1.49-3.7 2.73C-.04 61.96-1 66.66 1.33 72.35l.03.1.01.02c2.47 7.27 8.27 29.5 14.65 36.5 7.89 8.66 28.31 16.78 39.3 12.91a25.29 25.29 0 0014.36-12.83l1.13-2.32c13.22-7.27 26.43-14.55 39.66-21.83a7.88 7.88 0 003.79-4.75c.57-1.95.4-4.13-.66-6.05zM85.43 42.19c2.93-1.6 5.88-3.21 8.83-4.84 1.04-.57 2.23-.67 3.3-.36 1.07.31 2.02 1.02 2.59 2.07.57 1.04.67 2.23.36 3.3a4.282 4.282 0 01-2.07 2.59l-8.98 4.94c-.29-.18-.58-.35-.9-.5a9.065 9.065 0 00-5.13-.84l1.08-2.21c.65-1.34.94-2.76.92-4.15zm6.79 10.45l15.32-8.43c1.04-.57 2.23-.67 3.3-.36 1.07.31 2.02 1.02 2.59 2.07.57 1.04.67 2.23.36 3.3a4.282 4.282 0 01-2.07 2.59L92.35 62.46l.42-.87c1.1-2.26 1.18-4.76.41-6.97a8.83 8.83 0 00-.96-1.98zm-2.77 15.78l16.88-9.29c1.04-.57 2.23-.67 3.3-.36 1.07.31 2.02 1.02 2.59 2.07.57 1.04.67 2.23.36 3.3a4.282 4.282 0 01-2.07 2.59L87.73 79.26l1.74 3.17 15.07-8.29c1.04-.57 2.23-.67 3.3-.36 1.07.31 2.02 1.02 2.59 2.07.57 1.04.67 2.23.36 3.3a4.282 4.282 0 01-2.07 2.59l-35.16 19.35 15.89-32.67zm-23.5 38.82c-2.55 5.23-6.94 8.97-12.01 10.75-9.36 3.3-28.17-4.45-34.87-11.8-5.69-6.24-11.96-29.67-13.78-35.04-.02-.09-.06-.19-.09-.28l-1.92.79 1.91-.79c-1.7-4.1-1.16-7.32.4-9.21.57-.69 1.26-1.2 2.02-1.5.76-.3 1.57-.41 2.38-.29 2.04.3 4.12 2.01 5.34 5.54.28.81 1.02 2.96 1.79 4.97.72 1.89 1.51 3.75 2.16 4.69.2.35.51.63.88.81h1.83l4.02-7.14C32.68 55 39.36 41.52 46.08 27.73a4.98 4.98 0 012.86-2.52c1.21-.42 2.57-.38 3.8.22s2.1 1.65 2.52 2.85c.42 1.21.38 2.57-.22 3.8L42.01 58.85l3.86 1.88 17.21-35.36a4.99 4.99 0 012.85-2.52c1.21-.42 2.57-.38 3.8.22s2.1 1.65 2.52 2.86c.42 1.21.38 2.57-.22 3.8L54.82 65.09l3.94 1.92 13.07-26.85a4.98 4.98 0 012.86-2.52c1.21-.42 2.57-.38 3.8.22s2.1 1.65 2.52 2.86c.42 1.21.38 2.57-.22 3.8L67.71 71.36l3.73 1.82 8.64-17.76a4.96 4.96 0 012.85-2.52c1.21-.42 2.57-.38 3.8.22s2.1 1.65 2.52 2.86c.41 1.21.38 2.57-.22 3.8-7.69 15.82-15.38 31.64-23.08 47.46zm16.21-92.71a2.452 2.452 0 01-2.48 2.44 2.452 2.452 0 01-2.44-2.48l.06-11.91A2.452 2.452 0 0179.78.14c1.36.01 2.46 1.12 2.44 2.48l-.06 11.91zm12.98-.16c-.54 1.25-2 1.82-3.25 1.28s-1.82-2-1.28-3.25l4.78-10.91c.54-1.25 2-1.82 3.25-1.28s1.82 2 1.28 3.25l-4.78 10.91zM100 26.05a2.465 2.465 0 11-2.87-4.01l10.99-7.88a2.465 2.465 0 112.87 4.01L100 26.05z"/></symbol>
<symbol id="spin" viewBox="0 0 80 80" xml:space="preserve"><path d="M40,72C22.4,72,8,57.6,8,40C8,22.4, 22.4,8,40,8c17.6,0,32,14.4,32,32c0,1.1-0.9,2-2,2 s-2-0.9-2-2c0-15.4-12.6-28-28-28S12,24.6,12,40s12.6, 28,28,28c1.1,0,2,0.9,2,2S41.1,72,40,72z"/></symbol>
<symbol id="star" viewBox="0 0 22 22"><path d="M10.977 1a.479.479 0 00-.431.33L8.15 8.517H.476v.001a.479.479 0 00-.282.861l6.233 4.558-2.396 7.439v-.001a.476.476 0 00.736.533L11 17.35l6.233 4.557a.476.476 0 00.736-.533l-2.396-7.439 6.233-4.557a.479.479 0 00-.282-.86H13.85L11.454 1.33V1.33a.478.478 0 00-.477-.33z" fill="currentColor"/></symbol>
<symbol id="reader" viewBox="-87 0 980 980"><path d="M378.5 1.1c-30.4 3.2-60.3 13.6-83.6 29-12.2 8.1-32.4 28.2-40 39.9-15.4 23.3-22.7 44.5-28.1 81-1.8 12.7-2.2 19.9-2.3 39.5 0 13.2.3 25.2.7 26.6.7 2.5.4 2.8-5.8 5.4-7.9 3.4-16 10.8-19.2 17.8-4.1 8.7-5.5 17.1-5.4 32.7.2 45.1 15 75 48.6 97.9 11.8 8 14.7 11 17.2 17.8 6.9 18.7 19 42.3 29 56.3 4.1 5.7 7.9 12.1 8.5 14.2.5 2.1.9 7.5.7 11.9l-.3 8.2-7.5 2.8c-4.1 1.5-18.5 6.9-31.9 11.9-71.5 26.6-100.7 40.8-131.6 64-27.7 20.7-46 41.8-60.9 70.2-7.5 14.2-12.9 26.9-11.9 27.8.4.5 14.5 3.1 31.3 5.9 99.7 16.8 164.4 34.9 221.5 62.1 30.5 14.5 55.4 30.2 83.8 52.8l11.8 9.4 5.2-4.6c13.7-12.1 42.9-31.6 68.8-46.1 38-21.2 96.8-42.9 150.9-55.9 28.7-6.9 83.9-16.9 107.5-19.6 13.5-1.5 14.3-1.7 15-4 1.3-4-10.1-27.8-21.9-46-25.6-39.1-68.7-70.9-131.1-96.6-7.7-3.2-31.1-12.2-52-20l-38-14.3-.3-5.8c-.7-11.4.5-15.7 6.3-24.1 13.1-18.7 24.5-40.4 31.9-60.5 2.5-6.7 5.6-10 16-16.9 27-18.1 44.7-46.2 48.6-77 .7-5.7 1.1-16.8.8-27-.3-16.9-.4-17.5-3.5-23.9-4-8.6-13.2-18.1-20.7-21.4l-5.7-2.5.7-18.3c.9-24.2-1.6-51.3-6.8-75.6-4.5-21-15.1-45-27.2-61.1-13.5-18.1-34.2-35.3-54.9-45.7C462.8 4.4 417.1-2.9 378.5 1.1z"/><path d="M6.8 682c-2.8 1.5-4 3-4.7 5.7-1.5 5.3-1.5 103.5 0 110.2 2 9.6 1.5 9.4 27 10.7 74.2 3.9 135.2 18.2 196.8 46.1 36.2 16.4 69.3 36.1 101.9 60.8 17.2 13 28 22.3 50.1 43.2 9.7 9.1 19.3 17.7 21.4 19.1l3.7 2.5 3.8-2.5c2.1-1.4 11.6-10 21.2-19 9.6-9.1 21.2-19.7 25.8-23.7 68.3-58.9 151.9-99.5 240.7-117 26.3-5.2 55.3-8.4 86.5-9.7 16.1-.7 17.6-.9 19.6-2.9 4.1-4.1 4.5-10 4.2-65.8-.3-51.6-.3-52.6-2.4-55.4-3.4-4.5-7.2-4.9-28.7-2.9-106.3 9.6-199.9 33.7-272 69.8-35.7 17.8-62.3 35.9-87.4 59.4L403 821.2l-11.2-10.6c-29.4-27.4-63.8-49.3-110.1-70-60.4-27.1-145.7-48.2-234.9-58.1-27.6-3-34.9-3.1-40-.5z"/></symbol>
<symbol id="eu" viewBox="0 0 100 100"><circle cx="50" cy="50" fill="#039" r="50"/><g fill="#fc0"><path d="M50.1 12.005l-1.693 5.213 2.607.847z"/><path d="M50.1 12.005l1.695 5.213-2.607.847z"/><path d="M55.341 15.792H49.86v2.74z"/><path d="M55.341 15.792l-4.435 3.222-1.61-2.218z"/><path d="M53.336 21.92l-1.694-5.212-2.607.847z"/><path d="M53.336 21.92L48.9 18.7l1.611-2.218z"/><path d="M44.88 15.792h5.482v2.74z"/><path d="M44.88 15.792l4.435 3.222 1.611-2.218z"/><path d="M46.886 21.92l1.694-5.212 2.607.847z"/><path d="M46.886 21.92l4.435-3.221-1.611-2.218zM50.1 77.782l-1.693 5.213 2.607.847z"/><path d="M50.1 77.782l1.695 5.213-2.607.847z"/><path d="M55.341 81.57H49.86v2.74z"/><path d="M55.341 81.57l-4.435 3.221-1.61-2.217z"/><path d="M53.336 87.698l-1.694-5.213-2.607.847z"/><path d="M53.336 87.698L48.9 84.476l1.611-2.217z"/><path d="M44.88 81.57h5.482v2.74z"/><path d="M44.88 81.57l4.435 3.221 1.611-2.217z"/><path d="M46.886 87.698l1.694-5.213 2.607.847z"/><path d="M46.886 87.698l4.435-3.222-1.611-2.217zM17.22 44.893l-1.694 5.214 2.607.846z"/><path d="M17.22 44.893l1.694 5.214-2.607.846z"/><path d="M22.46 48.68H16.98v2.741z"/><path d="M22.46 48.68l-4.434 3.222-1.611-2.217z"/><path d="M20.455 54.81l-1.694-5.214-2.606.847z"/><path d="M20.455 54.81l-4.435-3.222 1.611-2.218z"/><path d="M12 48.68h5.481v2.741z"/><path d="M12 48.68l4.435 3.222 1.61-2.217z"/><path d="M14.005 54.81l1.694-5.214 2.607.847z"/><path d="M14.005 54.81l4.435-3.222-1.611-2.218zM30.445 26.328l4.434-3.222-1.61-2.218z"/><path d="M30.445 26.328l1.694-5.213 2.606.847z"/><path d="M28.477 20.2l4.434 3.222 1.611-2.217z"/><path d="M28.477 20.2h5.48v2.74z"/><path d="M33.679 16.411l-1.694 5.214 2.606.847z"/><path d="M33.679 16.411l1.694 5.214-2.607.847z"/><path d="M36.893 26.328l-4.434-3.222 1.61-2.218z"/><path d="M36.893 26.328L35.2 21.115l-2.607.847z"/><path d="M38.88 20.2l-4.435 3.222-1.61-2.217z"/><path d="M38.88 20.2h-5.482v2.74zM24.844 38.366l-1.694-5.214-2.606.847z"/><path d="M24.844 38.366l-4.434-3.222 1.61-2.217z"/><path d="M18.413 38.366l4.434-3.222-1.61-2.218z"/><path d="M18.413 38.366l1.693-5.214 2.607.847z"/><path d="M16.425 32.238l4.435 3.222 1.61-2.218z"/><path d="M16.425 32.238h5.481v2.74z"/><path d="M26.83 32.238l-4.435 3.222-1.611-2.218z"/><path d="M26.83 32.238h-5.482v2.74z"/><path d="M21.627 28.45l1.694 5.213-2.606.847z"/><path d="M21.627 28.45l-1.693 5.213 2.606.847zM26.854 65.125h-5.482v2.741z"/><path d="M26.854 65.125l-4.435 3.222-1.611-2.217z"/><path d="M24.845 71.254l-1.694-5.213-2.607.847z"/><path d="M24.845 71.254l-4.435-3.222 1.611-2.217z"/><path d="M18.413 71.254l4.435-3.222-1.611-2.217z"/><path d="M18.413 71.254l1.694-5.213 2.607.847z"/><path d="M21.648 61.338l1.693 5.213-2.606.847z"/><path d="M21.648 61.338l-1.694 5.213 2.606.847z"/><path d="M16.408 65.125h5.482v2.741z"/><path d="M16.408 65.125l4.435 3.222 1.61-2.217zM38.886 77.163h-5.482v2.741z"/><path d="M38.886 77.163l-4.435 3.222-1.61-2.217z"/><path d="M36.877 83.292l-1.694-5.213-2.606.847z"/><path d="M36.877 83.292l-4.434-3.222 1.61-2.217z"/><path d="M30.446 83.292l4.434-3.222-1.61-2.217z"/><path d="M30.446 83.292l1.693-5.213 2.607.847z"/><path d="M33.68 73.376l1.693 5.213-2.606.847z"/><path d="M33.68 73.376l-1.694 5.213 2.606.847z"/><path d="M28.44 77.163h5.482v2.741z"/><path d="M28.44 77.163l4.435 3.222 1.61-2.217zM83.002 44.893l1.694 5.214-2.607.847z"/><path d="M83.002 44.893l-1.694 5.214 2.607.847z"/><path d="M77.762 48.68h5.481v2.741z"/><path d="M77.762 48.68l4.434 3.222 1.611-2.217z"/><path d="M79.767 54.81l1.694-5.214 2.606.847z"/><path d="M79.767 54.81l4.434-3.222-1.61-2.218z"/><path d="M88.222 48.68H82.74v2.741z"/><path d="M88.222 48.68l-4.435 3.222-1.61-2.217z"/><path d="M86.217 54.81l-1.694-5.214-2.607.847z"/><path d="M86.217 54.81l-4.435-3.222 1.611-2.218zM69.777 26.328l-4.434-3.222 1.61-2.218z"/><path d="M69.777 26.328l-1.694-5.213-2.606.847z"/><path d="M71.745 20.2l-4.434 3.222-1.611-2.217z"/><path d="M71.745 20.2h-5.481v2.74z"/><path d="M66.543 16.411l1.694 5.214-2.606.847z"/><path d="M66.543 16.411l-1.694 5.214 2.607.847z"/><path d="M63.328 26.328l4.435-3.222-1.61-2.218z"/><path d="M63.328 26.328l1.694-5.213 2.607.847z"/><path d="M61.342 20.2l4.435 3.222 1.61-2.217z"/><path d="M61.342 20.2h5.482v2.74zM75.378 38.366l1.694-5.213 2.606.847z"/><path d="M75.378 38.366l4.434-3.222-1.61-2.217z"/><path d="M81.808 38.366l-4.434-3.222 1.61-2.217z"/><path d="M81.808 38.366l-1.693-5.214-2.607.847z"/><path d="M83.796 32.238L79.36 35.46l-1.61-2.218z"/><path d="M83.796 32.238h-5.481v2.741z"/><path d="M73.392 32.238l4.435 3.222 1.61-2.217z"/><path d="M73.392 32.238h5.481v2.741z"/><path d="M78.596 28.45l-1.694 5.213 2.606.847z"/><path d="M78.596 28.45l1.694 5.213-2.607.847zM73.368 65.126h5.482v2.74z"/><path d="M73.368 65.126l4.435 3.221 1.611-2.217z"/><path d="M75.377 71.254l1.694-5.213 2.607.847z"/><path d="M75.377 71.254l4.435-3.222-1.611-2.217z"/><path d="M81.809 71.254l-4.435-3.222 1.611-2.217z"/><path d="M81.809 71.254l-1.694-5.213-2.607.847z"/><path d="M78.575 61.338l-1.694 5.213 2.607.847z"/><path d="M78.575 61.338l1.694 5.213-2.607.847z"/><path d="M83.814 65.126h-5.481v2.74z"/><path d="M83.814 65.126l-4.435 3.221-1.61-2.217zM61.336 77.163h5.482v2.741z"/><path d="M61.336 77.163l4.435 3.222 1.61-2.217z"/><path d="M63.345 83.292l1.694-5.213 2.606.847z"/><path d="M63.345 83.292l4.435-3.222-1.612-2.217z"/><path d="M69.776 83.292l-4.434-3.222 1.61-2.217z"/><path d="M69.776 83.292l-1.693-5.213-2.607.847z"/><path d="M66.542 73.376l-1.694 5.213 2.607.847z"/><path d="M66.542 73.376l1.694 5.213-2.606.847z"/><path d="M71.782 77.163H66.3v2.741z"/><path d="M71.782 77.163l-4.435 3.222-1.611-2.217z"/></g></symbol>
<symbol id="bulb" viewBox="0 0 64 64" xml:space="preserve"><path fill="none" stroke="currentColor" stroke-width="4" stroke-miterlimit="10" d="M21 40v5h22l.001-5.107C49 36.195 53 29.564 53 22c0-11.598-9.402-21-21-21s-21 9.402-21 21c0 7.565 3.998 14.304 10 18zM28 45l-3-20M36 45l3-20"/><path fill="none" stroke="currentColor" stroke-width="4" stroke-miterlimit="10" d="m25 26 4 3 3-3 3 3 4-3M21 45h22v6H21zM23 51h18v6H23zM25 57h14v6H25z"/></symbol>
<symbol id="reply" viewBox="0 0 24 24" fill="none"><path d="M10.362 15.529l-1.414 1.414-4.95-4.95 4.95-4.95 1.414 1.415-2.498 2.498H16a4 4 0 014 4v2h-2v-2a2 2 0 00-2-2H7.79l2.573 2.573z" fill="currentColor"/></symbol>
<symbol id="post"><path d="M10.5 5h3a6 6 0 110 12v2.625c-3.75-1.5-9-3.75-9-8.625a6 6 0 016-6zM12 15.5h1.5a4.501 4.501 0 001.722-8.657A4.5 4.5 0 0013.5 6.5h-3A4.5 4.5 0 006 11c0 2.707 1.846 4.475 6 6.36V15.5z"/></symbol>
<symbol id="remove" viewBox="0 0 20 20"><g fill="none" fill-rule="evenodd"><circle stroke="currentColor" stroke-width="2" cx="10" cy="10" r="9"/><path fill="currentColor" fill-rule="nonzero" d="m14.982 8.913.035 2-9.999.174-.035-2z"/></g></symbol>
<symbol id="add" viewBox="0 0 20 20"><g fill="currentColor" fill-rule="nonzero"><path d="M10 18a8 8 0 1 0 0-16 8 8 0 0 0 0 16zm0 2C4.477 20 0 15.523 0 10S4.477 0 10 0s10 4.477 10 10-4.477 10-10 10z"/><path d="m11 8.982 3.982-.07.035 2-4.017.07V15H9v-3.982l-3.982.07-.035-2L9 9.017V5h2v3.982z"/></g></symbol>
<symbol id="content" fill="none" viewBox="0 0 24 24" stroke-width="2" stroke-linecap="round" stroke-linejoin="round" stroke="currentColor"><path d="M21 10H7M21 6H3M21 14H3M21 18H7"/></symbol>
<symbol id="sad" viewBox="0 0 100 100" fill="none"><path d="M38.385 67.383a16.667 16.667 0 0 1 23.566 0M37.668 41.667h.042m24.958 0h.042M87.668 50a37.5 37.5 0 1 1-75.001 0 37.5 37.5 0 0 1 75.001 0z" stroke="currentColor" stroke-width="6" stroke-linecap="round" stroke-linejoin="round"/></symbol>
<symbol id="smile" viewBox="0 0 1000 1000" xml:space="preserve"><path d="M464.55 10.81C233.22 28.07 46.13 203.34 13.73 433.25c-4.97 36.66-4.97 97.21 0 134.35C44.24 784.97 214.3 955.51 431.67 986.49c36.42 5.2 101.71 5.2 136.95 0 110.46-16.08 211.22-68.12 286.68-147.59 71.19-75.22 115.66-166.99 130.8-269.88 5.2-35.24 5.2-100.53 0-136.95-20.58-144.05-104.31-272.48-228.49-349.59-84.44-52.51-192.53-79-293.06-71.67zm-75.22 267.98c24.13 14.67 35.01 48.25 35.01 108.09 0 45.89-7.57 79.95-21.76 97.21-13.95 17.03-40.45 21.76-57.71 10.17-11.35-7.81-13.96-10.88-21.29-26.25-8.75-18.21-12.77-43.99-12.77-81.37 0-75.22 19.16-113.3 56.77-113.3 9.22.02 15.37 1.43 21.75 5.45zm264.92 0c24.13 14.67 35 48.49 35 108.09 0 75.45-18.92 113.53-56.77 113.53s-56.77-37.84-56.77-113.53c0-75.45 19.16-113.53 56.53-113.53 9.47.01 15.62 1.42 22.01 5.44zm-403.52 374.2c24.6 17.74 43.99 28.38 74.03 40.45 136.71 55.58 314.35 39.03 423.39-39.5 10.88-7.8 20.1-13.72 20.58-13.24 1.42 1.42-26.49 42.81-39.26 58.18-22.71 26.97-60.55 56.3-94.14 73.32-20.82 10.64-59.13 22.94-84.21 27.44-26.96 4.49-75.22 4.49-102.18 0-89.41-15.61-163.91-68.12-213.58-150.91-2.84-4.73-4.73-8.75-4.02-8.75.47 0 9.45 5.91 19.39 13.01z"/></symbol>
</svg>